<svg id="Layer_1" data-name="Layer 1" xmlns="http://www.w3.org/2000/svg" xmlns:xlink="http://www.w3.org/1999/xlink" viewBox="0 0 295.1 55.9"><defs><style>.cls-1{fill:none;}.cls-2{fill:#282828;}.cls-3{clip-path:url(#clip-path);}</style><clipPath id="clip-path" transform="translate(0.1 0)"><rect class="cls-1" width="295" height="55.8"/></clipPath></defs><title>uol_landscape</title><path class="cls-2" d="M27.9,24.9A5.38,5.38,0,0,1,30,26.4a4.19,4.19,0,0,0,1.5,1.2h.2a3.34,3.34,0,0,0,1.5-1.2,4.42,4.42,0,0,1,2-1.5.77.77,0,0,1,.3-.1,3,3,0,0,1,1.7.7,2.57,2.57,0,0,0-2,1.1,1.18,1.18,0,0,0-1-.1,1.41,1.41,0,0,0-1,1.1,1.16,1.16,0,0,0,.2,1,5.36,5.36,0,0,1-1.8,1.1,4.07,4.07,0,0,1-1.8-1.1,1.23,1.23,0,0,0,.2-1,1.41,1.41,0,0,0-1-1.1,1.18,1.18,0,0,0-1,.1,2.91,2.91,0,0,0-2-1.1,2.45,2.45,0,0,1,1.7-.7Zm3.5,5.4ZM35,13.8a2.92,2.92,0,0,0,.9.2,1.12,1.12,0,0,1,.8,1.2c-.1.3-.4.4-.8.4-.5-.5-.4-1.3-1-1.8Zm.3,3.3v.8a3.51,3.51,0,0,0-2-1.7,4.35,4.35,0,0,1,1.5,2.3c-.1,0-.2.1-.3.1s-.3-.1-.4-.2a5.92,5.92,0,0,0-2.4.7,5.92,5.92,0,0,0-2.4-.7c-.2.1-.3.1-.4.2s-.2-.1-.3-.1a4,4,0,0,1,1.5-2.3,3.91,3.91,0,0,0-2,1.7,1.07,1.07,0,0,1,0-.8,3.19,3.19,0,0,1,2.1-1.4,5.28,5.28,0,0,1,1.3-.1,30.75,30.75,0,0,0,.3,3.2v.1a30.75,30.75,0,0,0,.3-3.2c.5,0,.9.1,1.3.1A3,3,0,0,1,35.3,17.1Zm-2-3.6c.7.5.7,1.4,1.1,1.8a2.2,2.2,0,0,0-.8-.1c-.2,0-.5-.1-.7-.1-.6-.5-.6-1.2-1.4-1.7h.2A9.74,9.74,0,0,1,33.3,13.5Zm-3.3,0A4.36,4.36,0,0,1,31.3,15c-.5,0-1,.1-1.4.1-.6-.3-.8-1-1.6-1.4A9.85,9.85,0,0,1,30,13.5Zm-3.4,1.7a1.14,1.14,0,0,1,.5-1.1c.7.3,1,.9,1.4,1.2-.3.1-.7.1-1.1.2S26.6,15.5,26.6,15.2Z" transform="translate(0.1 0)"/><path class="cls-2" d="M23.2,35.1c.1,0,.4.1.6,0a.22.22,0,0,0,.2-.2c-.5,0-.7-.1-.8-.2V32h.5a.22.22,0,0,0,.2-.2,3.55,3.55,0,0,1-.7-.1V30c0-.5.6-.6,1-.6h5V36H29a1.58,1.58,0,0,0-.7.7h-.2c-.2-.3-.5-.8-.8-1.2v-4c.3-.4.5-.8.8-1.2h.2v5.8c.1-.2.3-.3.5-.5V29.7H24.1c-.2,0-.6,0-.6.3s.5.3.5.3c.2.3.5.8.8,1.2v4a8.34,8.34,0,0,0-.8,1.2.53.53,0,0,1-.8-.5V35.1Zm3.7-3.5v3.7H25.2V31.6Zm-1.7-.3a7,7,0,0,0-.6-.9h3.1l-.6.9Zm-.7,5.4a6.07,6.07,0,0,1,.7-1H27a6.07,6.07,0,0,0,.7,1ZM22,36.2v1.4a8.56,8.56,0,0,0,1.1,3.9l7.4-5.4V29.7a6.42,6.42,0,0,1-1.3-1H29l.2-.2c.3-.3.3-.5.2-.7a1.06,1.06,0,0,0-.6-.7.62.62,0,0,0-.7.2l-.3.3-.2-.3a2.17,2.17,0,0,0-.6-.7H22V35a1.74,1.74,0,0,1,.7.3C22.3,35.3,22.1,35.7,22,36.2Zm10.9,8.2h-.5a4.42,4.42,0,0,1,.6-1.6s.1-.1-.1-.2a.14.14,0,0,0-.2,0,4.92,4.92,0,0,0-.6,1.7h-.4V42.4a.1.1,0,1,0-.2,0v1.9h-.4a4.92,4.92,0,0,0-.6-1.7s0-.1-.2,0a.31.31,0,0,0-.1.2,4.42,4.42,0,0,1,.6,1.6h-.5c-.3-.9-1.2-1.3-2.5-1.5a1.63,1.63,0,0,1,1.6-.4,2.53,2.53,0,0,1-.8-1.4,2.19,2.19,0,0,1,1.5.5A2.21,2.21,0,0,1,30,40a2.09,2.09,0,0,1,1.2,1.1,1.92,1.92,0,0,1,.5-1.5,1.92,1.92,0,0,1,.5,1.5A1.77,1.77,0,0,1,33.4,40a3,3,0,0,1-.1,1.6,2.19,2.19,0,0,1,1.5-.5,2,2,0,0,1-.8,1.4,1.63,1.63,0,0,1,1.6.4Q33.35,43.2,32.9,44.4ZM30,45c0-.1.2-.2.5-.2h2c.3,0,.5.1.5.2s-.2.2-.5.2H30.4C30.3,45.2,30,45.1,30,45Zm.5.5h2c.3,0,.5.1.5.2s-.2.2-.5.2H30.4c-.3,0-.5-.1-.5-.2A1.07,1.07,0,0,1,30.5,45.5Zm2.6,3c0,.4-.5.6-.9.4a.65.65,0,0,1-1.2,0,.48.48,0,0,1-.8-.4c-.3.2-.5-.1-.4-.3a6.19,6.19,0,0,0,.7-1.9H31a6.45,6.45,0,0,1-.3,2s-.1.2,0,.3.2,0,.3-.2a5.84,5.84,0,0,0,.3-2.1h.3v2.5s0,.1.2.1.1-.1.1-.1V46.2H32a5.48,5.48,0,0,0,.3,2.1c.1.2.2.3.3.2s0-.3,0-.3a6.45,6.45,0,0,1-.3-2h.5a3.61,3.61,0,0,0,.7,1.9C33.5,48.4,33.4,48.7,33.1,48.5ZM31.6,38.2l-7.4,5.4c2.1,3.2,5.2,6.2,7.4,7.2,2.2-1,5.3-4,7.4-7.2ZM40,36h-.2a1.58,1.58,0,0,0-.7.7h-.2c-.2-.3-.5-.8-.8-1.2v-4c.3-.4.5-.8.8-1.2h.2v5.8c.1-.2.3-.3.5-.5V29.7H34.9c-.2,0-.6,0-.6.3s.5.3.5.3c.2.3.5.8.8,1.2v4a8.34,8.34,0,0,0-.8,1.2.53.53,0,0,1-.8-.5v-1c.1,0,.4.1.6,0a.22.22,0,0,0,.2-.2c-.5,0-.7-.1-.8-.2V32.1h.5a.22.22,0,0,0,.2-.2,3.55,3.55,0,0,1-.7-.1V30.1c0-.5.6-.6,1-.6h5Zm-2.2-4.4v3.7H36V31.6ZM36,31.3a7,7,0,0,0-.6-.9h3.1l-.6.9Zm-.7,5.4a6.07,6.07,0,0,1,.7-1h1.8a6.07,6.07,0,0,0,.7,1Zm5.9.9V36.2c-.2-.5-.4-1-.7-1.1a1.74,1.74,0,0,1,.7-.3V26.4h-5c-.2.2-.5.4-.6.7l-.2.3-.3-.3a1.48,1.48,0,0,0-.7-.1.86.86,0,0,0-.6.7,1,1,0,0,0,.2.7l.2.2-.2.3a6.42,6.42,0,0,1-1.3,1v6.4l7.4,5.4A10.08,10.08,0,0,0,41.2,37.6ZM18,16.4c.8.7.6,1.2.5,1.4l-.2.4a27.26,27.26,0,0,0,3.2.2.14.14,0,0,1,0,.2h-.9a1.32,1.32,0,0,1-.9.7,1.28,1.28,0,0,0,1.7-.3,1.31,1.31,0,0,0,1.7.3c-1.2-.4-1.1-1.5-1.1-2.6a.5.5,0,0,0,0-1c.1-1.5,1.5-1.3,2.2-1.1-.5-1.4-2.2-1-2.2-1s.2-1.9-.7-2.5c-.9.7-.7,2.5-.7,2.5s-1.7-.4-2.2,1c.6-.2,2-.4,2.2,1.1a.5.5,0,0,0,0,1v.8a2.89,2.89,0,0,1-1.3-.8C19.5,16.2,18.8,15.3,18,16.4ZM4.4,22.5a2,2,0,0,1,.2-2.2,5,5,0,0,1,3-1.4,4.68,4.68,0,0,0,.2,1.7C6.8,20.5,4.9,20.8,4.4,22.5Zm7.2-1.3a3.24,3.24,0,0,1-1.4-2.4,7.86,7.86,0,0,1,2.6.8c0,.1.1.2.1.3a6.62,6.62,0,0,0-1.5-.1c.6.1,1.2.4,1.7.5.1.1.1.2.2.3a3.69,3.69,0,0,0-1.5-.1,9.46,9.46,0,0,1,1.8.5l.3.3a5.21,5.21,0,0,0-1.4-.2,20.48,20.48,0,0,1,2,.7,4.8,4.8,0,0,0,1.9.9,29.66,29.66,0,0,1-4.7-1.4Z" transform="translate(0.1 0)"/><path class="cls-2" d="M4.1,19.9c-1.8,1.9-.8,3.8.3,5.1s1.7,4-.5,5.5c4.3-1.1,2.8-5.2,2.8-5.2s2.2-1.1,1.1-3.1c.1.8-1,1.5-2.3,1.4S3.1,21.6,4.1,19.9Zm12.2-3.7a.27.27,0,0,1-.3-.3.32.32,0,0,1,.3-.3.3.3,0,1,1,0,.6Z" transform="translate(0.1 0)"/><g class="cls-3"><path class="cls-2" d="M16.9,34.2a5.84,5.84,0,0,1-2.7,3.3S15.9,35.4,16.9,34.2ZM-.1,46.7c3.2-.1,7.6-3.1,8.6-3.8a1,1,0,0,0,0-.8A23.45,23.45,0,0,1-.1,46.7Z" transform="translate(0.1 0)"/></g><path class="cls-2" d="M23.5,22a4.39,4.39,0,0,1-3.4,2.8c4.1.8,5.1-1.9,6.2-4.3a6.34,6.34,0,0,1-1,3.5c.8-.4,2-1.1,2.1-2.2a3.57,3.57,0,0,1-1,1.1,4.71,4.71,0,0,0,.1-3.6c-.6,1.1-1.2,3-2.7,4a8.27,8.27,0,0,0,.9-2.8,7.17,7.17,0,0,1-4.2,2c4.2-2,4.5-4.2,6.6-6.3-.3.1-.6.5-.8.6C25,18,24,19.5,22.7,20.3c-2.4,1.5-6.1.7-7.7-.2a3.39,3.39,0,0,1-1.8-3C12.2,20.3,17.4,25.7,23.5,22Zm7-20.7c.2-.2.4-.3.6-.1l-.1.1C30.8,1.7,30.5,1.5,30.5,1.3Zm-.2.8a1.87,1.87,0,0,0-.3-.4s.2-.3.3-.3.3.3.3.3A1.73,1.73,0,0,1,30.3,2.1Zm-.6-.8-.1-.1c.1-.2.4-.1.5.1S29.8,1.7,29.7,1.3Zm4.4,6.2a3,3,0,0,0-.3-.6s-2-1.8-2.2-2.9c.8.8,1.8,1.8,2.2,2.1-.6-1.7-1.2-3-2.2-3.6-.1-.1-.3-.2-.3-.4A3.06,3.06,0,0,0,31,.6a1.17,1.17,0,0,0-.7-.2,1.2,1.2,0,0,0-.8.2,2,2,0,0,0-.3,1.7c-.9,1.7.1,3.1,1.8,3.9V5.6a1.91,1.91,0,0,1-.2-2.4C30.6,4.7,32.7,6.6,34.1,7.5ZM21.3,25.8H25a1.87,1.87,0,0,0,.3-.4H20.9v7.9c-.2.4-.2,1.2-.5,1.6s.2,1.5-.4,2.5c-.4.7-.6.9-2.3,1.1-.5,0-1.2,0-1.4-.7a2.52,2.52,0,0,0-.1,1.7,8.34,8.34,0,0,1-2.6.8.66.66,0,0,0,.8.4,21.44,21.44,0,0,1,5-1.1c.1-.5,1.3-.6,1.7-1.1,0-.7.1-1.4.1-2.2a3.37,3.37,0,0,1,.4-1.2c-.4-.1-.6,0-.7.1s0-1.7.6-2.1c-.1-.2-.3-.2-.5-.2A51.65,51.65,0,0,0,21.3,25.8ZM27.9,3.7a.3.3,0,0,1-.6,0,.3.3,0,1,1,.6,0Z" transform="translate(0.1 0)"/><path class="cls-2" d="M31.6,22.1A20.38,20.38,0,0,0,27.8,20a7.08,7.08,0,0,1,3.8,1.4A8.07,8.07,0,0,1,35.4,20,20.38,20.38,0,0,0,31.6,22.1Zm4.3-3.9a1.35,1.35,0,0,1-.6.9h-.1a.37.37,0,0,0-.3.1,4.08,4.08,0,0,1-.7.2,25.8,25.8,0,0,0-2.7,1,12.56,12.56,0,0,0-2.7-1,4.08,4.08,0,0,1-.7-.2.37.37,0,0,1-.3-.1h-.1a1.35,1.35,0,0,1-.6-.9,29.38,29.38,0,0,0,.5,3.5,10,10,0,0,1,.3,2.7,10.37,10.37,0,0,1,1,.4,21.38,21.38,0,0,0-.4-3.5c.9.8,1.1,3.2,1.1,4a6,6,0,0,1,.8.8,2.67,2.67,0,0,0,1.2,1,2.67,2.67,0,0,0,1.2-1,6,6,0,0,1,.8-.8c0-.8.2-3.2,1.1-4a23.86,23.86,0,0,0-.4,3.5,3,3,0,0,1,1-.4,10.33,10.33,0,0,1,.3-2.7C35.6,20.7,35.8,19.4,35.9,18.2ZM31.8,30.3ZM45.2,16.4c-.8.7-.6,1.2-.5,1.4l.2.4a27.26,27.26,0,0,1-3.2.2.14.14,0,0,0,0,.2h.9a1.32,1.32,0,0,0,.9.7,1.28,1.28,0,0,1-1.7-.3,1.31,1.31,0,0,1-1.7.3c1.2-.4,1.1-1.5,1.1-2.6a.5.5,0,0,1,0-1c-.1-1.5-1.5-1.3-2.2-1.1.5-1.4,2.2-1,2.2-1s-.2-1.9.7-2.5c.9.6.7,2.5.7,2.5s1.7-.4,2.2,1c-.6-.2-2-.4-2.2,1.1a.5.5,0,0,1,0,1v.8a2.89,2.89,0,0,0,1.3-.8C43.7,16.2,44.4,15.3,45.2,16.4Zm13.6,6.1a2,2,0,0,0-.2-2.2,5,5,0,0,0-3-1.4,4.68,4.68,0,0,1-.2,1.7C56.4,20.5,58.3,20.8,58.8,22.5Zm-7.2-1.3A3.24,3.24,0,0,0,53,18.8a7.86,7.86,0,0,0-2.6.8c0,.1-.1.2-.1.3a6.62,6.62,0,0,1,1.5-.1c-.6.1-1.2.4-1.7.5-.1.1-.1.2-.2.3a3.69,3.69,0,0,1,1.5-.1,9.46,9.46,0,0,0-1.8.5l-.3.3a5.21,5.21,0,0,1,1.4-.2,20.48,20.48,0,0,0-2,.7,4.8,4.8,0,0,1-1.9.9,29.66,29.66,0,0,0,4.7-1.4ZM19,9.4a1.84,1.84,0,0,0-.5-2.1,1.67,1.67,0,0,1-.1,1.8c.2-1-.2-2.2-.8-2.2a1.71,1.71,0,0,1,.1,1.8c.3-1.3-.8-2.6-2.1-1.5,1,0,1.3.5,1.3,1a4.65,4.65,0,0,1-1.7,3c-.7-.5-1.4-1.7-.4-3.5A2.66,2.66,0,0,1,19,7a2.56,2.56,0,0,0-1.9-1.2,32.5,32.5,0,0,0-5.3-.2A2,2,0,0,1,10.3,2c-2.9.8-2.4,3.4-1.9,3.9A2.33,2.33,0,0,0,6.3,7.8a5.69,5.69,0,0,1,4.4-.3,23.23,23.23,0,0,0-5.4,2.8C3.6,11.3,1.9,9.2,3.7,8a1.74,1.74,0,0,0,1.2,2.1c-1-.4-1-2.3-.7-2.9-2.3.8-2,3.2-1,3.7s3,.3,3.1,1.1c2.5-.1,4.3-3.4,7-4.1-1.8,2-2.3,5.1-6.2,6.3a6,6,0,0,0,6.3-3,2.07,2.07,0,0,0,2.3.5.35.35,0,0,1,.2.1,2,2,0,0,1-1.4.4c-.7.7-1.8,1.8-1.8,2.8.2,0,.4-.1.6-.1,2.2-3.2,7.8-3.5,8.4-6.3A4.55,4.55,0,0,1,19,9.4ZM59,7.2c.3.5.3,2.4-.7,2.9,1,0,1.4-1.2,1.2-2.2,1.8,1.2.1,3.3-1.6,2.3a23.23,23.23,0,0,0-5.4-2.8c1-.3,3.2-.5,4.4.3a2.33,2.33,0,0,0-2.1-1.9c.5-.5,1-3.1-1.9-3.9a2.08,2.08,0,0,1-1.5,3.7,32.11,32.11,0,0,0-5.3.2A2.88,2.88,0,0,0,44.2,7a2.66,2.66,0,0,1,4.2.7,2.56,2.56,0,0,1-.4,3.5c-1-.9-1.8-1.8-1.7-3,0-.5.4-.9,1.3-1-1.3-1.1-2.4.2-2.1,1.5a1.91,1.91,0,0,1,.1-1.8c-.6,0-1,1.1-.8,2.2a1.93,1.93,0,0,1-.1-1.8,1.84,1.84,0,0,0-.5,2.1,3.66,3.66,0,0,1-2.7-1c.5,2.8,6.2,3.1,8.4,6.3a1.27,1.27,0,0,1,.6.1c0-1-1.1-2.1-1.8-2.8a1.68,1.68,0,0,1-1.4-.4c.1,0,.1,0,.2-.1.4.4,1.7.2,2.3-.5a6,6,0,0,0,6.3,3.1c-3.9-1.2-4.4-4.3-6.2-6.3,2.7.8,4.5,4.1,7,4.1.1-.8,2.1-.6,3.1-1.1S61.3,8,59,7.2Z" transform="translate(0.1 0)"/><path class="cls-2" d="M59.1,19.9c1.8,1.9.8,3.8-.3,5.1s-1.7,4,.5,5.5c-4.3-1.1-2.8-5.2-2.8-5.2s-2.2-1.1-1.1-3.1c-.1.8,1,1.5,2.3,1.4S60.1,21.6,59.1,19.9ZM46.9,16.2a.27.27,0,0,0,.3-.3.32.32,0,0,0-.3-.3.3.3,0,0,0,0,.6Zm-.6,18A5.84,5.84,0,0,0,49,37.5S47.3,35.4,46.3,34.2Zm17,12.5c-3.6-.1-8.8-3.9-8.8-3.9l.2-.7A22.46,22.46,0,0,0,63.3,46.7ZM39.7,22a4.39,4.39,0,0,0,3.4,2.8c-4.1.8-5.1-1.9-6.2-4.3a6.34,6.34,0,0,0,1,3.5c-.8-.4-2-1.1-2.1-2.2a3.57,3.57,0,0,0,1,1.1,4.71,4.71,0,0,1-.1-3.6c.6,1.1,1.2,3,2.7,4a8.27,8.27,0,0,1-.9-2.8,7.17,7.17,0,0,0,4.2,2c-4.2-2-4.5-4.2-6.6-6.3.3.1.6.5.8.6,1.3,1.2,2.3,2.7,3.6,3.5,2.4,1.5,6.1.7,7.7-.2a3.39,3.39,0,0,0,1.8-3C51,20.3,45.8,25.7,39.7,22Z" transform="translate(0.1 0)"/><path class="cls-2" d="M46.9,39.5a2,2,0,0,0-.1-1.7c-.2.7-.9.7-1.4.7-1.7-.1-1.9-.4-2.3-1.1-.6-1.1-.1-2.1-.4-2.5s-.3-1.1-.5-1.6V25.4H37.8a1.87,1.87,0,0,0,.3.4h3.7v7.1c-.2,0-.4,0-.5.2.6.4.8,2.2.6,2.1a.82.82,0,0,0-.7-.1,3.37,3.37,0,0,1,.4,1.2,17,17,0,0,1,.1,2.2c.4.5,1.6.6,1.7,1.1a15.86,15.86,0,0,1,5,1.1.66.66,0,0,0,.8-.4C48.7,40.2,48,39.8,46.9,39.5Z" transform="translate(0.1 0)"/><path class="cls-2" d="M57,52.5a10.38,10.38,0,0,0-.3,1.2V54a1.85,1.85,0,0,0-.7.2c.1-.3.2-.8.3-1.2l-1,1L55,52.6a3.09,3.09,0,0,0-.2.8v.2a4.33,4.33,0,0,1-.5.1c.1-.3.4-1.6.5-1.8a1,1,0,0,0-.1-.3c.1-.1.3-.2.4-.3.1.1.1.2.2.3s.2,1,.4,1.5c.3-.4.6-.6.7-.8a.19.19,0,0,0,0-.3c.1-.1.3-.2.4-.3A1,1,0,0,1,57,52.5Zm-3,.9h-.6v-.6l-.8-.4a1.73,1.73,0,0,1-.4.3l-.4-.2,2-1.8v1.8a.4.4,0,0,0,.5-.1.55.55,0,0,1-.5.4C53.9,53.2,53.9,53.3,54,53.4Zm-2.9-1.1c.2-.4.8-1.3.9-1.6.1-.1,0-.3,0-.3.2-.1.3-.1.5-.2a.58.58,0,0,1,0,.7c-.1.2-.4.7-.6,1.1-.1.2-.1.2,0,.3C51.7,52.4,51.4,52.3,51.1,52.3Zm-.6-1c-.1.2-.1.2,0,.3h-.7c.2-.4.8-1.4.9-1.7a.19.19,0,0,0-.1-.3c-.1-.1-.2-.1-.3-.2a.76.76,0,0,0-.4-.1,1.42,1.42,0,0,1,.6-.2c.3.2,1.5.8,1.7,1-.2.1-.4.1-.6.2,0-.1,0-.1-.2-.2a1.24,1.24,0,0,0-.3-.2.37.37,0,0,1-.1.3A8,8,0,0,1,50.5,51.3Zm-1.6-.4h-.5s-.1-1.2-.2-1.9a4.38,4.38,0,0,0-.5.9.14.14,0,0,0,0,.2h-.5c.2-.3.8-1.4,1-1.6s0-.3,0-.3c.2-.1.3-.1.5-.2a10.73,10.73,0,0,1,.4,2.1c.3-.4.5-.9.6-1a.14.14,0,0,0,0-.2c.1,0,.2-.1.4-.1,0,.1.1.3,0,.5s-.6,1.1-.8,1.4C48.9,50.8,48.9,50.8,48.9,50.9Zm-3.4-1.8c.2-.4.7-1.3.9-1.6.1-.1,0-.3,0-.3.2-.1.4-.1.5-.2l1.2.7c-.2.1-.4.1-.6.2,0-.1,0-.1-.2-.2l-.4-.2a.37.37,0,0,1-.1.3,1.44,1.44,0,0,1-.2.3c.3.1.7.4.8.4-.2.1-.4.1-.6.2,0-.1,0-.1-.2-.2s-.1-.1-.2-.1a2.09,2.09,0,0,1-.4.6c.2.1.3.2.5.3,0,0,.2.1.3,0v.5Zm-.2-.4h-.7c.2-.4.7-1.3.9-1.6.1-.1,0-.3,0-.3.2-.1.3-.1.5-.2a.58.58,0,0,1,0,.7c-.1.2-.4.7-.6,1.1A.77.77,0,0,0,45.3,48.7Zm-1.6-1.5c0,.1-.1.2-.2.3s-.1.2,0,.3h-.7c.2-.4.7-1.4.8-1.7a.19.19,0,0,0-.1-.3c.2-.1.3-.1.5-.2.3.1.4.2.7.3C45.8,46.5,45.1,48.2,43.7,47.2Zm-1,.2a1.08,1.08,0,0,0-.6.1v-.6a2.61,2.61,0,0,0-.8-.3,1.2,1.2,0,0,0-.4.4l-.4-.2,1.9-1.9s.1,1.2.1,1.8a.58.58,0,0,0,.4-.1c0,.1-.2.4-.4.4C42.6,47.2,42.6,47.4,42.7,47.4Zm-3.3-.7a.9.9,0,0,1-.6-.6l.5-.1c-.1.1,0,.3.2.4a.37.37,0,0,0,.5-.2c.1-.2-.1-.3-.3-.5a.87.87,0,0,1-.4-.7c.1-.2.3-.4.4-.6a1.1,1.1,0,0,1,.8,0,1.54,1.54,0,0,1,.6.4l-.4.2a.4.4,0,0,0-.2-.4c-.3-.1-.5,0-.5.1s.1.3.3.6.5.5.3.9A.85.85,0,0,1,39.4,46.7Zm9.3.9ZM47,45.7c.8.5,2.6.8,3,1.1s-1,0-1.3.4c-.1.1-.2.2-.2.3-.2-.2-.2-.3-.2-.4-.4-.2-.8-.5-1-.3a1,1,0,0,1-.1-.4c-.3-.2-.7-.4-1-.6A.59.59,0,0,1,47,45.7ZM32.5,52.3a1.76,1.76,0,0,0-.4.5c0-.1-.1-.1-.3-.1h-.5c0,.1.1.2.1.3v.4h.9a1.76,1.76,0,0,0-.4.5c0-.1-.1-.1-.3-.1h-.3v.7h.5a.37.37,0,0,0,.3-.1,2.19,2.19,0,0,1,.3.5H30.8V53.1c0-.2-.1-.2-.2-.2.1-.1.3-.3.3-.4A4.68,4.68,0,0,1,32.5,52.3Zm.4,0h.8a.76.76,0,0,1,.2,1.5,3.17,3.17,0,0,0,.5.6.5.5,0,0,0,.7.1.91.91,0,0,1-1,.3,2.22,2.22,0,0,1-.8-1v.5c0,.2.1.2.1.3l-.6.3V53c0-.2-.1-.2-.2-.2C32.7,52.6,32.8,52.5,32.9,52.3Zm2.7,1.1c.4,0,.5.3.8.3a.73.73,0,0,0,.6-.2.79.79,0,0,1-.7.5c-.4,0-.5-.3-.8-.3a1,1,0,0,0-.6.2A.68.68,0,0,1,35.6,53.4Zm-6.3.5v.4c0,.2.1.2.1.3l-.6.3V53c0-.2-.1-.2-.2-.2.1-.1.2-.3.3-.4h.8C30.9,52.3,31,54.2,29.3,53.9Zm-1.8,0c-.4,0-.5-.3-.8-.3a1,1,0,0,0-.6.2.68.68,0,0,1,.7-.5c.4,0,.5.3.8.3a.73.73,0,0,0,.6-.2A.67.67,0,0,1,27.5,53.9Zm-5.8-6.7a1.1,1.1,0,0,1-.8,0l.3-.4c0,.1.2.2.4.1a.55.55,0,0,0,.3-.5c-.1-.2-.3-.2-.6-.2s-.8-.1-.9-.4.1-.8.6-1a2,2,0,0,1,.7-.1l-.2.5c0-.1-.2-.2-.4-.1s-.3.3-.3.5.3.2.6.2a1,1,0,0,1,.9.4A.77.77,0,0,1,21.7,47.2Zm-1.3.6c-.1,0-.2-.2-.4-.4a5.94,5.94,0,0,0-.8.4v.5l-.4.2-.1-2.7s.9.7,1.4,1.2c.5-.2.5-.4.4-.5a.63.63,0,0,1-.1.8.37.37,0,0,0,.3.1A1.87,1.87,0,0,0,20.4,47.8ZM18.1,49c-.2-.4-.7-1.4-.9-1.7-.1-.1-.2-.2-.3-.1s-.2.1-.3.2-.2.2-.3.3c0-.1.1-.5.1-.6a15.11,15.11,0,0,1,1.8-.9c0,.2-.1.4-.1.6h-.3a1.24,1.24,0,0,1-.3.2c.1,0,.1.1.2.2s.4.8.6,1.1.2.2.2.2A2.18,2.18,0,0,0,18.1,49Zm-1.4.6a2.43,2.43,0,0,1-1.2-.5.76.76,0,0,1,.2.4c.1.2.2.2.2.2-.1.2-.3.4-.4.6a12.9,12.9,0,0,1-.9-1.6.37.37,0,0,0-.3-.1c0-.2.1-.3.1-.5a7.76,7.76,0,0,0,.7-.4c.9-.5,1.7.5.9,1.2a1.08,1.08,0,0,0,.7.2.66.66,0,0,0,.7-.2C17.4,49.2,17.2,49.7,16.7,49.6ZM14,51.3c-.2-.4-.7-1.3-.9-1.6a.37.37,0,0,0-.3-.1,4.33,4.33,0,0,1,.1-.5l1.2-.7c0,.2-.1.4-.1.6h-.3l-.4.2.2.2a1.44,1.44,0,0,0,.2.3,2.77,2.77,0,0,0,.8-.5c0,.2-.1.4-.1.6h-.3a.77.77,0,0,1-.2.3c.1.2.3.4.4.6.2-.1.3-.2.5-.3,0,0,.2-.1.2-.2.2.1.3.2.5.2A9.88,9.88,0,0,0,14,51.3Zm-1,.5c-.2.1-.4.3-1,.6-.2-.3-.7-1.3-.9-1.6a.37.37,0,0,0-.3-.1c0-.2.1-.3.1-.5a7.76,7.76,0,0,0,.7-.4c.8-.5,1.3.3,1.1.7A.68.68,0,0,1,13,51.8Zm-2,1.1c-.2-.4-.7-1.4-.8-1.7-.1-.1-.2-.2-.3-.1,0-.2.1-.3.1-.5a.87.87,0,0,1,.6.4,11.73,11.73,0,0,1,.5,1.1c.1.2.2.2.2.2A.86.86,0,0,1,11,52.9Zm-1.7.7a12.2,12.2,0,0,1-.7-1.7c-.1-.1-.2-.2-.3-.1.1-.2.1-.3.2-.5a.87.87,0,0,1,.6.4c.1.2.4.9.6,1.3a2.57,2.57,0,0,0,.5-.2s.2-.1.2-.2a2.19,2.19,0,0,0,.5.3C10.6,53,9.5,53.5,9.3,53.6Zm3.9-6.8c.3-.4,2.2-.6,3-1.1a1,1,0,0,1,.9,0c-.3.2-.7.4-1,.6a.76.76,0,0,1-.1.4c-.2-.3-.6,0-1,.3,0,.2.1.2-.2.5,0-.1-.1-.2-.2-.3C14.3,46.8,13,47.1,13.2,46.8Zm46.2-.1a8.39,8.39,0,0,0-3.2,2.8c.4.2,1.4.7,1.5,1.5a2.44,2.44,0,0,0-.8-1.5,6.55,6.55,0,0,1,2.6-2.1,2.27,2.27,0,0,1,1.3,3.2c-1.5,1-2.4,2.6-3.5,3.3v-.1c.1-.1.1-.2.2-.3a3.36,3.36,0,0,0,.2-2.2,15.54,15.54,0,0,1-2.3-.5,36.41,36.41,0,0,1-5.9-3c-.1-.1-.2-.1-.3-.2a2.77,2.77,0,0,1,.9.1c.4,0,1-.1,1.3-.1a4.88,4.88,0,0,0,.7-.3,1.15,1.15,0,0,1,.6,0c-.1-.8,1.2-2.9,1.2-3.1a3.75,3.75,0,0,0-.1-1s-.1-1.9.7-2.5a8.79,8.79,0,0,0,2.8,2.4c.4.8,1.1,1.4,1.4,1.4a2.57,2.57,0,0,1-.5-1.4,6.59,6.59,0,0,0,2.1,2.3,2.67,2.67,0,0,1-.8-1.6,6.5,6.5,0,0,0,2.7,2.4c-2.5-3-2.5-5-2.5-5a14.8,14.8,0,0,0-1.3-.8,16.7,16.7,0,0,1,.6,2A12.53,12.53,0,0,0,57.5,40c.1.4.3,1.1.4,1.7-.5-.9-1-1.7-1.4-2.3a14.58,14.58,0,0,1,.4,1.7,7.49,7.49,0,0,0-1.1-2c-1.2-.4-.8.4-.8.4s-1.7-2.1-3.8-2.2c.6.3,1.8,1.2,1.7,1.1a8.15,8.15,0,0,0-1.4-.4c-.8,0-.1.8.4,1.8a31,31,0,0,1,1.2,2.9c-.8,0-1-1.4-2.7-2.3a12.62,12.62,0,0,1,1.4,1.9,4.35,4.35,0,0,1,.4,2.6c-.2,1.5-1.3,1.5-2.2,1.2a25.49,25.49,0,0,1-2.8-.8,1.45,1.45,0,0,0-1.3.1l-.1.1c-2.1-1.1-4.2-2-5.4-1.9a14.06,14.06,0,0,0,1.9-4.5,1.21,1.21,0,0,1-.5-.1,15.28,15.28,0,0,1-2.6,5.5c-.1.1-.1.2-.2.3l-.1.1c-.3.3-.5.7-.7.9-.4.4-.7.9-1.1,1.3a16.91,16.91,0,0,1-5.5,4.3c-3.8-1.7-9.2-7.8-10.1-12.5l-.4.2A16.77,16.77,0,0,0,23,43.6c-1.3-.1-3.3.8-5.4,1.9l-.1-.1a1.45,1.45,0,0,0-1.3-.1,13.64,13.64,0,0,1-2.8.8c-.9.3-2,.3-2.2-1.2a4.35,4.35,0,0,1,.4-2.6A7,7,0,0,1,13,40.4c-1.7.9-1.9,2.3-2.7,2.3a13.71,13.71,0,0,1,1.2-2.9c.4-.9,1.2-1.8.4-1.8a8.15,8.15,0,0,0-1.4.4,9.67,9.67,0,0,1,1.7-1.2,5.86,5.86,0,0,0-3.8,2.2s.4-.9-.8-.4a12.81,12.81,0,0,0-1.1,2,14.58,14.58,0,0,1,.4-1.7,15.44,15.44,0,0,0-1.4,2.3,6.07,6.07,0,0,1,.4-1.7,8.31,8.31,0,0,0-1.5,2.4c.2-.7.4-1.5.6-2a14.8,14.8,0,0,0-1.3.8s0,2-2.5,5a6.5,6.5,0,0,0,2.7-2.4,9.53,9.53,0,0,1-1.2,1.7,6.59,6.59,0,0,0,2.1-2.3,2.92,2.92,0,0,1-.5,1.4c.4,0,1-.6,1.4-1.4a7.78,7.78,0,0,0,2.8-2.4c1.3,1.2.5,3.1.6,3.5.2.8,1,1.6,1.2,3.1a1.06,1.06,0,0,1,.6,0c.2,0,.4.2.7.3a2.77,2.77,0,0,0,1.3.1,2.77,2.77,0,0,0,.9-.1c-.1.1-.2.1-.3.2a36.41,36.41,0,0,1-5.9,3,7.8,7.8,0,0,1-2.2.4,4.16,4.16,0,0,0,.2,2.2c.1.1.1.2.2.3v.1c-1.1-.7-2-2.3-3.5-3.3a2.27,2.27,0,0,1,1.3-3.2,6.55,6.55,0,0,1,2.6,2.1,2.75,2.75,0,0,0-.8,1.5c.2-.8,1.1-1.3,1.5-1.5a8.39,8.39,0,0,0-3.2-2.8C1.6,46.8.9,50.2,2,51c.5.1.7.4,1.1.8,1.1,1.2,2.3,3.3,4.7,2.9h.3c2.2-.5,4.8-2,7.6-3.6,3.4-2,6.9-4,9.9-4,.5.5.9,1,1.4,1.5a4.24,4.24,0,0,1-.9,2.2A5.5,5.5,0,0,0,27.4,49a18.53,18.53,0,0,0,3.5,2.6,54.41,54.41,0,0,1-5.7-.3c-.9-.1-2.3-.8-1.2-1.4a1.37,1.37,0,0,0,.6-2.1c.3.9-1,1.7-1.6,2-.3.1-.2.4-.1.7a1.33,1.33,0,0,0,.3.5,4.23,4.23,0,0,0,.5.7,26.74,26.74,0,0,1,1.7,3c.8.5,4,.8,6.4.8a22.66,22.66,0,0,0,6.4-.8,27.23,27.23,0,0,1,1.6-3,5.55,5.55,0,0,0,.6-.8,2.19,2.19,0,0,1,.3-.5c.1-.3.1-.6-.1-.7-.7-.3-2-1.1-1.7-2-.5.5-.5,1.5.6,2.1s-.4,1.2-1.2,1.3a53,53,0,0,1-5.7.3,18.53,18.53,0,0,0,3.5-2.6,5.5,5.5,0,0,0,1.3,1.8,5.34,5.34,0,0,1-.9-2.2c.5-.5.9-1,1.4-1.5,3,0,6.5,2.1,9.9,4,2.8,1.6,5.4,3.1,7.6,3.6a.37.37,0,0,1,.3.1c2.4.4,3.5-1.7,4.6-2.9a2.26,2.26,0,0,1,1.1-.8c.9-.7.2-4.1-2-4.2Z" transform="translate(0.1 0)"/><path class="cls-2" d="M11.7,50.2c-.1.1-.2.1-.3.2l.2.2c0,.1.2.3.3.6a1,1,0,0,1,.1-.4C12.6,50.5,12.3,49.8,11.7,50.2Zm3.6-2.1c-.1.1-.2.1-.3.2l.2.2c.1.1.2.4.4.7,0-.1.1-.3.1-.4A.4.4,0,1,0,15.3,48.1Z" transform="translate(0.1 0)"/><path class="cls-2" d="M12.2,51c-.1,0-.2.1-.3.1a2.83,2.83,0,0,1,.3.6c.2-.1.3-.1.4-.2C13.2,51.3,12.8,50.7,12.2,51Zm7-3.6c.1-.1.3-.1.5-.2-.2-.2-.4-.3-.5-.4Zm34.2,4.5a2.18,2.18,0,0,1-.5.4c.1.1.3.1.5.2Zm-8.9-5.7c-.1-.1-.2-.1-.3-.2a.37.37,0,0,1-.1.3c-.1.1-.2.5-.4.8a.76.76,0,0,0,.4-.2C44.6,47.4,45.1,46.5,44.5,46.2Zm-3,.2a1.69,1.69,0,0,1,.5.2v-.7ZM29.6,52.7h-.4c0,.1.1.2.1.3v.9l.3-.3A.45.45,0,0,0,29.6,52.7Zm4,0h-.4c0,.1.1.2.1.3v.8l.3-.3A.4.4,0,1,0,33.6,52.7ZM35.9,8.9h-.7V7.7l.3-.7.3.6C35.9,7.6,35.9,8.1,35.9,8.9Zm0,1.4h-.7V9.2h.7Zm-1.4.4H28.6v-.4h5.8v.4ZM27.3,8.9V7.7l.4-.7.3.6V8.8h-.7Zm0,1.4V9.2H28v1.1Zm8.9-3.1-.7-3.7-.7,3.7L34.5,7V9.2h-.2c-.3-.7-1-2-1-2s0,.4-.3.5c-.1.1-.5-.1-.8-.3.1.1.5,1.3.8,1.8H31.6a3,3,0,0,1,.1-1.3,1.87,1.87,0,0,0,.4-.3s0-1.2-.8-1.6a5.31,5.31,0,0,0,.1,1.4,3.89,3.89,0,0,1-.3,1.8h-.3a.37.37,0,0,1-.1-.3,3.4,3.4,0,0,1,.1-1,1,1,0,0,0,.5-.4c-.1-.3-.1-.7-.2-1a5.9,5.9,0,0,1-.8-.4c0,.6.1,1,.1,1.3a3.43,3.43,0,0,1-.5,1.7H28.7V6.9l-.4.2-.7-3.7L27,7.2,26.6,7v6.7a4.88,4.88,0,0,1,.7-.3V10.7H28v2.5c.5-.1,1.1-.2,1.7-.3V11.8c0-.4.6-.7.6-.7s.6.3.6.7v1h1.3v-1c0-.4.6-.7.6-.7s.6.3.6.7v1.1l1.7.3V10.7h.7v2.7a4.88,4.88,0,0,1,.7.3V7Z" transform="translate(0.1 0)"/><path class="cls-2" d="M35.3,3.7a.3.3,0,1,0,.6,0,.3.3,0,1,0-.6,0ZM13.7,33.8c.8-.7,1.1-1.9,1.1-3.8C15.3,31.6,15.2,33.1,13.7,33.8Zm-3,1.8c1.9-1,2.2-3.1,2.6-4.9C13.4,32.3,13.8,35.1,10.7,35.6Zm-2.5.9c.9-.5,2.6-1.5,3.4-5.3C11.4,35.3,9.9,36.5,8.2,36.5ZM2.6,40c1.5-3,5.4-4.3,6.9-7.9C9.2,36.7,5.9,36.9,2.6,40ZM16.3,24.8c-2.4-1.8-5.8-2.9-6.5-5.3-.7-2.2,1.9-3.1,3.6-2.8a.76.76,0,0,1,.2-.5c.5,1.7,2.6,2.2,4.3,1.4.4-.7-.2-1-.7-1.2-.2-.1-1.3.4-1.5-.6a1.42,1.42,0,0,1-1.1-.4,6,6,0,0,1,1.9,0c.7.1.7.3.9.6s.3-.1.8-.3c-.5-.5-1.9-1.6-4.7-.5-3.3,0-4.9,1.4-5.2,2.9-1,4.4,6,6.5,6.7,9.1C6.7,27.1.7,37.8.6,43.5c1.7-2.9,6.3-5.8,7.7-6.4A14.53,14.53,0,0,0,14,34.3c1.5-.5,2.4-2.8,1.5-4.7,1.8,1.1.9,3.7.9,3.7a1.24,1.24,0,0,1,.3-.2,2.81,2.81,0,0,0,.4-3.7,2.82,2.82,0,0,1,1.2,1.7,3.43,3.43,0,0,0-.7-2.7,2.19,2.19,0,0,1,1.2,1.1v-.1a3,3,0,0,0-1.1-2.3c1.8.4,1.8,3,1.4,3.9-.6,3-3.6,6.6-4.1,7.4a15.58,15.58,0,0,0,2.2-2.3,13.92,13.92,0,0,0,2.4-5.2C20,29.5,20.8,27,16.3,24.8Zm37.4,7.4c1.5,3.6,5.4,4.9,6.9,7.9C57.3,36.9,54,36.7,53.7,32.2Zm-2.2-1c.9,3.8,2.5,4.8,3.4,5.3C53.3,36.5,51.8,35.3,51.5,31.2Zm-1.6-.6c.4,1.8.6,4,2.6,4.9C49.4,35.1,49.8,32.3,49.9,30.6ZM48.4,30c.1,1.9.3,3.1,1.1,3.8C48,33.1,47.9,31.6,48.4,30Zm-.2-2.8c.7-2.6,7.7-4.7,6.7-9.1-.3-1.5-1.9-2.8-5.2-2.9-2.8-1.1-4.2,0-4.7.5.5.1.7.5.8.3s.2-.5.9-.6,1.4.1,1.9,0a2.82,2.82,0,0,1-1.1.4c-.2,1-1.3.6-1.5.6-.5.2-1.1.4-.7,1.2,1.7.8,3.8.3,4.3-1.4a.76.76,0,0,1,.2.5c1.7-.3,4.3.6,3.6,2.8s-4.1,3.4-6.5,5.3c-4.4,2.3-3.7,4.8-3.2,6.2a13.2,13.2,0,0,0,2.4,5.2,11.85,11.85,0,0,0,2.2,2.3c-.5-.9-3.5-4.5-4.1-7.4-.4-.9-.4-3.5,1.4-3.9a2.68,2.68,0,0,0-1.1,2.3v.1a2.19,2.19,0,0,1,1.2-1.1,3.43,3.43,0,0,0-.7,2.7,2.82,2.82,0,0,1,1.2-1.7,2.81,2.81,0,0,0,.4,3.7,1.24,1.24,0,0,1,.3.2s-.9-2.6.9-3.7a3.4,3.4,0,0,0,1.5,4.7A13.22,13.22,0,0,0,55,37.2c1.4.6,6,3.6,7.7,6.4-.2-5.8-6.2-16.5-14.5-16.4Zm27.9-17c0,3.2,1.6,4.7,5.1,4.7s4.9-1.4,4.9-4.3V2.9a1.54,1.54,0,0,0-1.4-1.8c-.5-.1-.6-.2-.6-.4s.1-.3.4-.3,1.2.1,2.1.1S88.2.4,88.5.4s.5.1.5.3-.2.4-.8.6-1,.4-1,1.6v7.6c0,3.7-2.4,5.7-6.9,5.7s-6.9-1.8-6.9-5.1V2.7c0-.9-.5-1.4-1.5-1.6-.5-.1-.6-.2-.6-.5s.3-.3.9-.3,1.8.1,2.6.1c1,0,2-.1,2.6-.1.4,0,.8,0,.8.4,0,.2-.1.3-.6.4-1.1.2-1.5.6-1.5,1.7ZM94.9,2.5c-.9-1.1-1.3-1.4-2-1.5-.3-.1-.4-.1-.4-.4a.27.27,0,0,1,.3-.3l2.1.1c.2,0,1.1-.1,1.3-.1s.4.1.7.4l10.5,11.1V3.2A2,2,0,0,0,105.5,1c-.3,0-.6-.1-.6-.3s.1-.3.5-.3,2,.1,2.5.1,2-.1,2.3-.1.4.1.4.3-.1.2-.5.3c-1.1.2-1.6.9-1.6,2.4V15.7c0,.4-.1.5-.3.5s-.3-.1-.4-.1L95.9,3.5v9.1c0,1.8.5,2.5,1.9,2.7.4.1.5.1.5.4s-.2.3-.8.3-1.6-.1-2.3-.1-2,.1-2.2.1-.2-.1-.2-.3.1-.3.5-.4c1.3-.2,1.7-1,1.7-3.1V2.5ZM119.4,13c0,1.5.4,2,1.6,2.2.5.1.6.2.6.4,0,.4-.4.4-1,.4s-1.6-.1-2.5-.1-2.4.1-2.9.1-.7,0-.7-.4c0-.1.1-.2.5-.3,1.2-.2,1.7-.8,1.7-2.3V3.1c0-1.3-.6-1.9-1.9-2.1-.4-.1-.5-.1-.5-.4s.1-.3.5-.3c.2,0,2.2.1,3.1.1s2.4-.1,2.6-.1c.4,0,.7,0,.7.3s-.1.3-.5.4a1.93,1.93,0,0,0-1.5,2.2V13Zm8.2-10.6A2.39,2.39,0,0,0,125.9,1c-.4-.1-.5-.2-.5-.4s.2-.3.6-.3c.2,0,1.9.1,2.8.1s2.1-.1,2.7-.1c.2,0,.5,0,.5.3s-.1.3-.5.4-1.1.2-1.1.9a2.69,2.69,0,0,0,.4,1.3l4.5,9.3,4-8.6a5.74,5.74,0,0,0,.7-2c0-.5-.2-.7-.8-.9-.4-.1-.5-.2-.5-.4s.2-.3.5-.3,1.4.1,2,.1,1.5-.1,1.8-.1.4.1.4.2-.1.3-.6.4c-1.1.2-1.4.6-2.1,2.2l-5.8,12.6c-.1.2-.2.5-.4.5s-.3-.2-.6-.8l-6.3-13ZM160.3,16l-6.6-.1-6,.1c-.6,0-.6-.2-.6-.3s.2-.3.8-.4c1.1-.2,1.4-.6,1.4-1.8V3c0-1.2-.2-1.6-1.5-1.8-.5-.1-.6-.2-.6-.4s.1-.3.5-.3h9.7l2.5-.1,1.1,4a.37.37,0,0,1,.1.3.27.27,0,0,1-.3.3c-.2,0-.3-.1-.5-.3a6.44,6.44,0,0,0-5.5-3.3h-2.7V7h4.5c1.1,0,1.5-.3,1.7-1.3.1-.6.2-.8.5-.8s.4.2.4.6c0,.2-.1,1.5-.1,1.8s.1,1.8.1,2.2-.1.5-.3.5-.4-.2-.5-.7c-.3-1.2-.7-1.5-2.5-1.5h-3.8v5.9c0,1,.7,1.4,2.4,1.4a7.73,7.73,0,0,0,6.7-3.4c.3-.4.5-.7.7-.7a.27.27,0,0,1,.3.3,1.09,1.09,0,0,1-.1.5L160.3,16Zm10.8-7.6h.9c2.4,0,3.5-1.1,3.5-3.5S174.3,1,172.4,1c-1,0-1.4.3-1.4,1V8.4Zm2.9,2.3c-1-1.6-1.4-1.7-2.9-1.7v3.9a2.08,2.08,0,0,0,1.8,2.4c.4.1.6.2.6.4s-.1.3-.4.3-2.5-.1-3.2-.1-2.2.1-2.8.1-.6,0-.6-.3.1-.3.5-.4c1.1-.2,1.6-.9,1.6-2.3V2.7c0-1.1-.4-1.6-1.6-1.7-.6-.1-.7-.1-.7-.4s.3-.2.7-.2,2.2.1,2.9.1,3-.1,3.3-.1c3.1,0,5.1,1.6,5.1,4.2a5.41,5.41,0,0,1-2.4,4.2c.6.8,1,1.3,1.7,2.3l.3.5c2.2,3.2,2.9,3.7,4.1,3.8.4,0,.4.1.4.3,0,.4-.7.4-1,.4s-1.2-.1-1.5-.1-1,.1-1.3.1c-.8,0-1.2-.4-2.4-2.2L174,10.7ZM196.2,5a2.81,2.81,0,0,1,.1.8c0,.3-.1.5-.3.5s-.4-.2-.6-.9c-.8-2.8-2.3-4.4-4.3-4.4a2.19,2.19,0,0,0-2.4,2.1c0,1.6,1.4,2.4,3.4,3.4,3.5,1.7,4.8,2.7,4.8,5.1,0,2.8-2,4.5-5.2,4.5-.5,0-2.6-.2-3-.2a5.47,5.47,0,0,0-1.2.2c-.2,0-.3-.1-.3-.6a25,25,0,0,0-.5-4.1,5,5,0,0,1-.2-1.2c0-.2.1-.4.3-.4s.4.2.6.9c1.2,4.1,4.2,4.4,5.1,4.4a2.32,2.32,0,0,0,2.6-2.4c0-1.9-1.9-2.8-3.8-3.7s-4.4-2.2-4.4-4.9A4.07,4.07,0,0,1,191.2.2a16.09,16.09,0,0,1,2.5.3c.6.1.9.2,1.1.2a.67.67,0,0,0,.7-.4c.1-.2.2-.2.3-.2s.4.1.3,1.1a26.31,26.31,0,0,0,.2,3.3l-.1.5Zm10.3,8c0,1.5.4,2,1.6,2.2.5.1.6.2.6.4,0,.4-.4.4-1,.4s-1.6-.1-2.5-.1-2.4.1-2.9.1-.7,0-.7-.4c0-.1.1-.2.5-.3,1.2-.2,1.7-.8,1.7-2.3V3.1c0-1.3-.6-1.9-1.9-2.1-.4-.1-.5-.1-.5-.4s.1-.3.5-.3c.2,0,2.2.1,3.1.1s2.4-.1,2.6-.1c.4,0,.7,0,.7.3s-.1.3-.5.4a1.93,1.93,0,0,0-1.5,2.2V13ZM213.9.5h13.9l1,4.1c0,.2,0,.4-.2.4s-.4-.2-.8-.8c-1.1-1.5-2.6-2.8-4.5-2.8h-1.1V13.5a1.58,1.58,0,0,0,1.5,1.7c.4.1.6.2.6.5s-.4.4-1,.4-1.7-.1-2.5-.1-2.5.1-2.9.1-.7-.2-.7-.4.2-.4.6-.4c1.1-.2,1.6-.8,1.6-1.6V1.4h-.8c-.8,0-3,0-5,3.1-.2.4-.4.5-.5.5s-.2-.1-.2-.3a4.33,4.33,0,0,0,.1-.5l.9-3.7Zm25.4,8.2-4.6-6.6A2.56,2.56,0,0,0,233.2,1c-.3-.1-.4-.1-.4-.3,0-.4.4-.4.9-.4s1.6.1,2.4.1,1.9-.1,2.3-.1.6.1.6.4-.1.2-.5.3c-.6.1-.8.3-.8.7a1.85,1.85,0,0,0,.2.7l3.3,4.8,2.9-4.4a1.86,1.86,0,0,0,.4-1.1c0-.5-.3-.7-.9-.8-.3,0-.4-.1-.4-.3s.3-.4.7-.4c.2,0,1,.1,1.5.1s1.6-.1,1.9-.1.6.1.6.2-.1.3-.5.4a3,3,0,0,0-2,1.6L242,8.2v5.2a1.55,1.55,0,0,0,1.5,1.8c.6.1.7.2.7.5s-.2.3-.7.3-2.1-.1-2.7-.1-2.2.1-2.7.1-.8,0-.8-.3.2-.3.7-.4c1.1-.2,1.3-.5,1.3-1.6Zm23.7-1c0,4.8,2.1,7.8,5.5,7.8,2.6,0,5.3-2,5.3-7.1,0-4.5-2.3-7.5-5.6-7.5-3.8,0-5.2,3.2-5.2,6.8Zm13.7.2c0,5.1-3.4,8.4-8.4,8.4-6.6,0-8-5-8-7.7,0-4.9,3.1-8.6,8.2-8.6,4.9,0,8.2,3.4,8.2,7.9Zm9.2-.2v5c0,1.8.5,2.5,1.9,2.5.5,0,.6.1.6.3s-.2.5-.6.5c-.2,0-2.4-.1-2.8-.1s-2.7.1-3.2.1-.6-.1-.6-.4.1-.3.4-.3c.7-.1,1.8-.2,1.8-2v-9c0-2.1-.4-2.9-1.6-3.1-.6-.1-.8-.2-.8-.4s.2-.3.7-.3h9.6l2.3-.1,1,4.1c.1.2.1.6-.2.6s-.2-.1-.5-.5c-.8-1.4-2.1-3.2-6.4-3.2a11.56,11.56,0,0,0-1.7.1,10.41,10.41,0,0,0-.1,2.1V7h2.9c2.6,0,3-.1,3.1-1.2.1-.5.1-.6.4-.6s.4.2.4,1.2c0,2.2.1,3,.1,3.3s-.1.6-.4.6-.4-.3-.5-1c-.2-1.1-.4-1.4-3.3-1.4h-2.5V7.7ZM81.5,50c0,2.8.8,3.5,3.9,3.5,2.8,0,9.3,0,13.8-6.9.5-.7.7-1,1.2-1a.56.56,0,0,1,.5.6,11.79,11.79,0,0,1-.7,2.2,29.46,29.46,0,0,0-2.3,6.9l-12.6-.2-11.8.2c-1.2,0-1.5-.1-1.5-.6s.4-.5,1.2-.7c3.3-.6,3.3-1.8,3.3-7.7V29.5c0-2.5-.5-3.2-2.8-3.4-1.3-.1-1.7-.3-1.7-.8s.4-.7,1.1-.7,4.5.2,5.4.2c2.1,0,5.6-.2,6.3-.2.5,0,1,0,1,.6s-.3.7-1.4.8-2.8.3-2.8,3V50Zm31.9-.6c0,2.9.7,3.9,3.1,4.4,1,.2,1.3.4,1.3.8,0,.7-.8.7-2,.7s-3.1-.2-4.8-.2-4.6.2-5.6.2-1.4-.1-1.4-.7c0-.3.3-.4,1.1-.6,2.4-.4,3.3-1.6,3.3-4.6V30c0-2.5-1.2-3.8-3.7-4.1-.7-.1-1.1-.2-1.1-.7s.3-.6,1.1-.6c.5,0,4.4.2,6.2.2s4.7-.2,5.2-.2c.8,0,1.4,0,1.4.5s-.2.5-.9.7c-2.1.6-3,2-3,4.3V49.4Zm11.8-20.6c-1.8-2.1-2.5-2.7-4-2.9-.6-.2-.7-.3-.7-.7a.53.53,0,0,1,.6-.6c.3,0,3.9.2,4.2.2s2.2-.2,2.6-.2a1.71,1.71,0,0,1,1.4.7L149.8,47V30c0-2.6-1.2-3.9-3.7-4.2-.6-.1-1.2-.2-1.2-.6s.3-.6.9-.6,4,.2,4.8.2,4-.2,4.5-.2.8.1.8.5-.2.5-.9.6c-2.2.4-3.1,1.8-3.1,4.7V54.5c0,.8-.1,1.1-.6,1.1a1.45,1.45,0,0,1-.7-.2L127.2,30.7V48.6c0,3.5,1,4.9,3.7,5.3.8.1,1,.2,1,.7s-.3.6-1.5.6c-.9,0-3.1-.2-4.5-.2s-3.9.2-4.4.2a.47.47,0,0,1-.5-.5c0-.4.2-.5.9-.7,2.5-.4,3.3-1.9,3.3-6.1V28.8Zm48.5-5a23.66,23.66,0,0,1,8.3,1.7,4,4,0,0,0,1.3.4c.3,0,.5-.2,1-.6s.6-.5.9-.5.6.5.6,2.9a57.36,57.36,0,0,0,.3,6,11,11,0,0,1,.2,1.8c0,.5-.1.8-.4.8s-.6-.4-.9-1.5c-2.2-8.5-9.2-9.4-10.9-9.4-6,0-9.7,5.3-9.7,14,0,9,4.5,14.7,11.5,14.7a15.27,15.27,0,0,0,10-4.1c.3-.3.4-.4.6-.4s.3.2.3.5c0,.6-4.3,5.8-12.1,5.8-9.7,0-15.8-6.3-15.8-16.3.1-9.4,6-15.8,14.8-15.8ZM197.2,39c0,9.4,4.2,15.3,10.8,15.3,5.1,0,10.5-3.9,10.5-14,0-8.9-4.5-14.8-11.1-14.8C199.8,25.7,197.2,31.9,197.2,39Zm26.8.4c0,9.9-6.6,16.4-16.5,16.4-12.9,0-15.7-9.8-15.7-15.1,0-9.6,6.1-16.8,16.1-16.8,9.6,0,16.1,6.7,16.1,15.5ZM238.3,50c0,2.8.8,3.5,3.9,3.5,2.8,0,9.3,0,13.8-6.9.5-.7.7-1,1.2-1a.56.56,0,0,1,.5.6,11.79,11.79,0,0,1-.7,2.2,29.46,29.46,0,0,0-2.3,6.9L242,55.1l-11.8.2c-1.2,0-1.5-.1-1.5-.6s.4-.5,1.2-.7c3.3-.6,3.3-1.8,3.3-7.7V29.5c0-2.5-.5-3.2-2.8-3.4-1.2-.1-1.5-.3-1.5-.8s.4-.7,1.1-.7,4.5.2,5.4.2c2.1,0,5.6-.2,6.3-.2.5,0,1,0,1,.6s-.3.7-1.4.8-2.8.3-2.8,3V50Zm26-21.2c-1.8-2.1-2.5-2.7-4-2.9-.6-.2-.7-.3-.7-.7a.53.53,0,0,1,.6-.6c.3,0,3.9.2,4.2.2s2.2-.2,2.6-.2a1.71,1.71,0,0,1,1.4.7L288.9,47V30c0-2.6-1.2-3.9-3.7-4.2-.6-.1-1.2-.2-1.2-.6s.3-.6.9-.6,4,.2,4.8.2,4-.2,4.5-.2.8.1.8.5-.2.5-.9.6c-2.2.4-3.1,1.8-3.1,4.7V54.5c0,.8-.1,1.1-.6,1.1a1.45,1.45,0,0,1-.7-.2L266.3,30.7V48.6c0,3.5,1,4.9,3.7,5.3.8.1,1,.2,1,.7s-.3.6-1.5.6c-.9,0-3.1-.2-4.5-.2s-3.9.2-4.4.2a.47.47,0,0,1-.5-.5c0-.4.2-.5.9-.7,2.5-.4,3.3-1.9,3.3-6.1V28.8Z" transform="translate(0.1 0)"/></svg>